PathFileType	4	(X/Y/Z)	G:\GRF\jawan data\CompiledGRF\03. Mohit Kumar\0231~ac~Standing_markers.trc
DataRate	CameraRate	NumFrames	NumMarkers	Units	OrigDataRate	OrigDataStartFrame	OrigNumFrames
100.000000	100.000000	6	18	mm	100.000000	219	584
Frame#	Time	c7			r should			l should			sacrum			r asis			r bar 1			r knee 1			r bar 2			r mall			r heel			r met			l asis			l bar 1			l knee 1			l bar 2			l mall			l heel			l met			
		X1	Y1	Z1	X2	Y2	Z2	X3	Y3	Z3	X4	Y4	Z4	X5	Y5	Z5	X6	Y6	Z6	X7	Y7	Z7	X8	Y8	Z8	X9	Y9	Z9	X10	Y10	Z10	X11	Y11	Z11	X12	Y12	Z12	X13	Y13	Z13	X14	Y14	Z14	X15	Y15	Z15	X16	Y16	Z16	X17	Y17	Z17	X18	Y18	Z18	

220	2.19	297.3404235839844	1519.226684570313	153.9053039550781	385.5627136230469	1458.379272460938	324.0009765625	381.20263671875	1470.679565429688	-15.5140552520752	273.1995239257813	1058.813232421875	136.8239593505859	450.9366760253906	1019.059448242188	269.0125122070313	341.2056579589844	613.1183471679688	334.197509765625	352.6642150878906	524.8831176757813	283.4544067382813	287.2953186035156	201.9536743164063	303.4044494628906	302.3192443847656	75.38796234130859	242.3248901367188	251.5577392578125	38.61213684082031	190.3691101074219	453.4862670898438	38.70747375488281	253.4130249023438	460.4487609863281	1026.304565429688	16.09198379516602	352.0314636230469	607.4640502929688	-40.23336791992188	355.9218444824219	518.2086791992188	17.62248229980469	293.0938110351563	244.1747741699219	-18.67401885986328	299.6813659667969	75.44916534423828	57.53531265258789	246.7577972412109	34.49980926513672	116.9028625488281	447.433837890625	39.52410125732422	58.44364166259766	
221	2.2	297.2732238769531	1519.227172851563	153.7488250732422	385.5860595703125	1458.360717773438	323.8764343261719	380.9862060546875	1470.671997070313	-15.63865089416504	273.2779846191406	1058.7646484375	136.7301177978516	451.044189453125	1019.112243652344	268.90185546875	341.1626281738281	613.0985717773438	334.132568359375	352.7712707519531	524.8609619140625	283.3779602050781	287.3384399414063	201.9435577392578	303.3324890136719	302.3863525390625	75.36880493164063	242.2801208496094	251.5640869140625	38.64289474487305	190.3417816162109	453.4568176269531	38.68043518066406	253.3881072998047	460.2781982421875	1026.26611328125	15.90878486633301	352.0345764160156	607.4268798828125	-40.35478973388672	356.07177734375	518.2298583984375	17.56780242919922	293.0858764648438	244.1674041748047	-18.71935653686523	299.6395874023438	75.49623107910156	57.52946472167969	246.3835144042969	34.70353317260742	116.926628112793	447.5634155273438	39.5458869934082	58.41386032104492	
222	2.21	297.1078796386719	1519.261474609375	153.6122589111328	385.4848022460938	1458.335693359375	323.7422180175781	381.2410583496094	1470.642578125	-15.80707168579102	273.190185546875	1058.774291992188	136.6426544189453	450.9981994628906	1019.117858886719	268.7879333496094	341.2440185546875	613.1148681640625	334.0530700683594	352.80517578125	524.8170166015625	283.297119140625	287.4961547851563	201.9369812011719	303.288818359375	302.4564514160156	75.32894897460938	242.2289581298828	251.2750091552734	38.78531646728516	190.3018493652344	453.4971313476563	38.71205520629883	253.3987731933594	460.4624328613281	1026.275756835938	15.81686592102051	352.03759765625	607.3817138671875	-40.45394134521484	356.0669250488281	518.235595703125	17.45493316650391	293.0662536621094	244.1139678955078	-18.78385734558105	299.5886535644531	75.50958251953125	57.51113891601563	246.3469848632813	34.73093414306641	116.859260559082	447.613037109375	39.48006820678711	58.41296768188477	
223	2.22	297.1950073242188	1519.266235351563	153.4796600341797	385.5628356933594	1458.36376953125	323.6315002441406	381.2245483398438	1470.661499023438	-15.9306697845459	273.0970153808594	1058.776611328125	136.5200805664063	450.9490051269531	1019.092346191406	268.7165832519531	341.3910522460938	613.1095581054688	333.9498596191406	353.00830078125	524.8370361328125	283.2099304199219	287.4574584960938	202.0231628417969	303.235107421875	302.461181640625	75.32618713378906	242.1712951660156	251.4807586669922	38.66903305053711	190.2803649902344	453.499267578125	38.70259094238281	253.3670043945313	460.4320068359375	1026.20166015625	15.74066066741943	351.9984436035156	607.3817138671875	-40.53913497924805	356.0350646972656	518.16015625	17.3836841583252	293.0098876953125	244.0970764160156	-18.82430458068848	299.5305480957031	75.49919891357422	57.51242065429688	246.7552795410156	34.43167495727539	116.8744354248047	447.6554870605469	39.48156356811523	58.36098480224609	
224	2.23	297.29541015625	1519.246704101563	153.3479919433594	385.5757751464844	1458.35791015625	323.5081176757813	381.2577514648438	1470.662353515625	-16.04052734375	273.1094055175781	1058.790771484375	136.4011077880859	451.0090026855469	1019.120239257813	268.6271057128906	341.4993591308594	613.0618286132813	333.8429870605469	353.0975952148438	524.8494262695313	283.1403198242188	287.4108581542969	202.0764770507813	303.1756896972656	302.4612731933594	75.41350555419922	242.1176300048828	251.8660125732422	38.50983047485352	190.2164154052734	453.5249633789063	38.73324584960938	253.3402404785156	460.2510986328125	1026.097290039063	15.61045074462891	352.0507202148438	607.3782348632813	-40.62512969970703	356.0008850097656	518.142578125	17.30715370178223	292.975830078125	244.0576324462891	-18.86677360534668	299.6015625	75.45819854736328	57.51436233520508	246.5558471679688	34.5592041015625	116.912971496582	447.6513977050781	39.48522186279297	58.39165115356445	
225	2.24	297.4458923339844	1519.209838867188	153.2376708984375	385.4797973632813	1458.317749023438	323.379638671875	381.2322692871094	1470.640258789063	-16.17399787902832	273.2484130859375	1058.747802734375	136.2849731445313	450.9891357421875	1019.077209472656	268.5555725097656	341.6601867675781	613.0216674804688	333.74560546875	353.1643981933594	524.8077392578125	283.0645141601563	287.5206604003906	202.0339050292969	303.1743774414063	302.4830932617188	75.44187927246094	242.0566101074219	251.9360198974609	38.51264190673828	190.125244140625	453.5853271484375	38.77345657348633	253.3249816894531	460.146484375	1026.053955078125	15.51324081420898	352.0078125	607.3609619140625	-40.73875045776367	355.9622802734375	518.1365966796875	17.18356513977051	293.0980834960938	244.0217742919922	-18.90209579467773	299.6202697753906	75.44499969482422	57.47819137573242	246.3200988769531	34.69507217407227	116.8763809204102	447.5203552246094	39.45880889892578	58.42336273193359	
